<?xml version="1.0" encoding="UTF-8" standalone="no"?>
<!DOCTYPE svg PUBLIC "-//W3C//DTD SVG 1.1//EN"
 "http://www.w3.org/Graphics/SVG/1.1/DTD/svg11.dtd">
<!-- Generated by graphviz version 2.47.3 (20210619.1520)
 -->
<!-- Title: dependencies Pages: 1 -->
<svg width="5248pt" height="247pt"
 viewBox="0.00 0.00 5248.00 246.80" xmlns="http://www.w3.org/2000/svg" xmlns:xlink="http://www.w3.org/1999/xlink">
<g id="graph0" class="graph" transform="scale(1 1) rotate(0) translate(4 242.8)">
<title>dependencies</title>
<polygon fill="white" stroke="transparent" points="-4,4 -4,-242.8 5244,-242.8 5244,4 -4,4"/>
<text text-anchor="middle" x="2620" y="-8.2" font-family="sans-serif" font-size="14.00">dependencies</text>
<g id="clust1" class="cluster">
<title>cluster_AppModule</title>
<polygon fill="none" stroke="black" stroke-dasharray="1,5" points="8,-32.8 8,-230.8 5232,-230.8 5232,-32.8 8,-32.8"/>
</g>
<g id="clust31" class="cluster">
<title>cluster_AppModule_bootstrap</title>
<polygon fill="none" stroke="black" points="2885,-170.8 2885,-222.8 3009,-222.8 3009,-170.8 2885,-170.8"/>
</g>
<g id="clust29" class="cluster">
<title>cluster_AppModule_imports</title>
<polygon fill="none" stroke="black" points="5080,-40.8 5080,-92.8 5224,-92.8 5224,-40.8 5080,-40.8"/>
</g>
<g id="clust2" class="cluster">
<title>cluster_AppModule_declarations</title>
<polygon fill="none" stroke="black" points="16,-40.8 16,-92.8 5072,-92.8 5072,-40.8 16,-40.8"/>
</g>
<!-- AnnoncesComponent -->
<g id="node1" class="node">
<title>AnnoncesComponent</title>
<polygon fill="#ffffb3" stroke="black" points="5063.81,-84.8 4926.19,-84.8 4926.19,-48.8 5063.81,-48.8 5063.81,-84.8"/>
<text text-anchor="middle" x="4995" y="-62.6" font-family="Times,serif" font-size="14.00">AnnoncesComponent</text>
</g>
<!-- AppModule -->
<g id="node27" class="node">
<title>AppModule</title>
<polygon fill="#8dd3c7" stroke="black" points="2988.66,-149.8 2985.66,-153.8 2964.66,-153.8 2961.66,-149.8 2905.34,-149.8 2905.34,-113.8 2988.66,-113.8 2988.66,-149.8"/>
<text text-anchor="middle" x="2947" y="-127.6" font-family="Times,serif" font-size="14.00">AppModule</text>
</g>
<!-- AnnoncesComponent&#45;&gt;AppModule -->
<g id="edge1" class="edge">
<title>AnnoncesComponent&#45;&gt;AppModule</title>
<path fill="none" stroke="black" d="M4995,-85.12C4995,-108.46 4995,-145.8 4995,-145.8 4995,-145.8 2998.84,-145.8 2998.84,-145.8"/>
<polygon fill="black" stroke="black" points="2998.84,-142.3 2988.84,-145.8 2998.84,-149.3 2998.84,-142.3"/>
</g>
<!-- AnnoncesEncoursComponent -->
<g id="node2" class="node">
<title>AnnoncesEncoursComponent</title>
<polygon fill="#ffffb3" stroke="black" points="4908.69,-84.8 4725.31,-84.8 4725.31,-48.8 4908.69,-48.8 4908.69,-84.8"/>
<text text-anchor="middle" x="4817" y="-62.6" font-family="Times,serif" font-size="14.00">AnnoncesEncoursComponent</text>
</g>
<!-- AnnoncesEncoursComponent&#45;&gt;AppModule -->
<g id="edge2" class="edge">
<title>AnnoncesEncoursComponent&#45;&gt;AppModule</title>
<path fill="none" stroke="black" d="M4817,-85.05C4817,-107.82 4817,-143.8 4817,-143.8 4817,-143.8 2998.68,-143.8 2998.68,-143.8"/>
<polygon fill="black" stroke="black" points="2998.68,-140.3 2988.68,-143.8 2998.68,-147.3 2998.68,-140.3"/>
</g>
<!-- AnnoncesHistoriqueComponent -->
<g id="node3" class="node">
<title>AnnoncesHistoriqueComponent</title>
<polygon fill="#ffffb3" stroke="black" points="4707.41,-84.8 4510.59,-84.8 4510.59,-48.8 4707.41,-48.8 4707.41,-84.8"/>
<text text-anchor="middle" x="4609" y="-62.6" font-family="Times,serif" font-size="14.00">AnnoncesHistoriqueComponent</text>
</g>
<!-- AnnoncesHistoriqueComponent&#45;&gt;AppModule -->
<g id="edge3" class="edge">
<title>AnnoncesHistoriqueComponent&#45;&gt;AppModule</title>
<path fill="none" stroke="black" d="M4609,-84.96C4609,-107.15 4609,-141.8 4609,-141.8 4609,-141.8 2998.91,-141.8 2998.91,-141.8"/>
<polygon fill="black" stroke="black" points="2998.91,-138.3 2988.91,-141.8 2998.91,-145.3 2998.91,-138.3"/>
</g>
<!-- AppComponent -->
<g id="node4" class="node">
<title>AppComponent</title>
<polygon fill="#ffffb3" stroke="black" points="4492.94,-84.8 4387.06,-84.8 4387.06,-48.8 4492.94,-48.8 4492.94,-84.8"/>
<text text-anchor="middle" x="4440" y="-62.6" font-family="Times,serif" font-size="14.00">AppComponent</text>
</g>
<!-- AppComponent&#45;&gt;AppModule -->
<g id="edge4" class="edge">
<title>AppComponent&#45;&gt;AppModule</title>
<path fill="none" stroke="black" d="M4440,-84.84C4440,-106.46 4440,-139.8 4440,-139.8 4440,-139.8 2998.88,-139.8 2998.88,-139.8"/>
<polygon fill="black" stroke="black" points="2998.88,-136.3 2988.88,-139.8 2998.88,-143.3 2998.88,-136.3"/>
</g>
<!-- CategorieVehiculeComponent -->
<g id="node5" class="node">
<title>CategorieVehiculeComponent</title>
<polygon fill="#ffffb3" stroke="black" points="4369.29,-84.8 4182.71,-84.8 4182.71,-48.8 4369.29,-48.8 4369.29,-84.8"/>
<text text-anchor="middle" x="4276" y="-62.6" font-family="Times,serif" font-size="14.00">CategorieVehiculeComponent</text>
</g>
<!-- CategorieVehiculeComponent&#45;&gt;AppModule -->
<g id="edge5" class="edge">
<title>CategorieVehiculeComponent&#45;&gt;AppModule</title>
<path fill="none" stroke="black" d="M4276,-85.08C4276,-106.12 4276,-137.8 4276,-137.8 4276,-137.8 2998.97,-137.8 2998.97,-137.8"/>
<polygon fill="black" stroke="black" points="2998.97,-134.3 2988.97,-137.8 2998.97,-141.3 2998.97,-134.3"/>
</g>
<!-- ContenuPageComponent -->
<g id="node6" class="node">
<title>ContenuPageComponent</title>
<polygon fill="#ffffb3" stroke="black" points="4164.99,-84.8 4009.01,-84.8 4009.01,-48.8 4164.99,-48.8 4164.99,-84.8"/>
<text text-anchor="middle" x="4087" y="-62.6" font-family="Times,serif" font-size="14.00">ContenuPageComponent</text>
</g>
<!-- ContenuPageComponent&#45;&gt;AppModule -->
<g id="edge6" class="edge">
<title>ContenuPageComponent&#45;&gt;AppModule</title>
<path fill="none" stroke="black" d="M4087,-85.11C4087,-104.95 4087,-133.8 4087,-133.8 4087,-133.8 2998.93,-133.8 2998.93,-133.8"/>
<polygon fill="black" stroke="black" points="2998.93,-130.3 2988.93,-133.8 2998.93,-137.3 2998.93,-130.3"/>
</g>
<!-- ContenuPageComponent&#45;&gt;AppModule -->
<g id="edge7" class="edge">
<title>ContenuPageComponent&#45;&gt;AppModule</title>
<path fill="none" stroke="black" d="M4048,-84.97C4048,-103.89 4048,-130.8 4048,-130.8 4048,-130.8 2998.82,-130.8 2998.82,-130.8"/>
<polygon fill="black" stroke="black" points="2998.82,-127.3 2988.82,-130.8 2998.82,-134.3 2998.82,-127.3"/>
</g>
<!-- ContenuPageComponent&#45;&gt;AppModule -->
<g id="edge8" class="edge">
<title>ContenuPageComponent&#45;&gt;AppModule</title>
<path fill="none" stroke="black" d="M4126,-84.93C4126,-105.37 4126,-135.8 4126,-135.8 4126,-135.8 2998.96,-135.8 2998.96,-135.8"/>
<polygon fill="black" stroke="black" points="2998.96,-132.3 2988.96,-135.8 2998.96,-139.3 2998.96,-132.3"/>
</g>
<!-- CorpsPageComponent -->
<g id="node7" class="node">
<title>CorpsPageComponent</title>
<polygon fill="#ffffb3" stroke="black" points="3990.99,-84.8 3849.01,-84.8 3849.01,-48.8 3990.99,-48.8 3990.99,-84.8"/>
<text text-anchor="middle" x="3920" y="-62.6" font-family="Times,serif" font-size="14.00">CorpsPageComponent</text>
</g>
<!-- CorpsPageComponent&#45;&gt;AppModule -->
<g id="edge9" class="edge">
<title>CorpsPageComponent&#45;&gt;AppModule</title>
<path fill="none" stroke="black" d="M3943.66,-85.07C3943.66,-103.36 3943.66,-128.8 3943.66,-128.8 3943.66,-128.8 2998.87,-128.8 2998.87,-128.8"/>
<polygon fill="black" stroke="black" points="2998.87,-125.3 2988.87,-128.8 2998.87,-132.3 2998.87,-125.3"/>
</g>
<!-- CorpsPageComponent&#45;&gt;AppModule -->
<g id="edge10" class="edge">
<title>CorpsPageComponent&#45;&gt;AppModule</title>
<path fill="none" stroke="black" d="M3896.34,-84.8C3896.34,-102.48 3896.34,-126.8 3896.34,-126.8 3896.34,-126.8 2998.71,-126.8 2998.71,-126.8"/>
<polygon fill="black" stroke="black" points="2998.71,-123.3 2988.71,-126.8 2998.71,-130.3 2998.71,-123.3"/>
</g>
<!-- DetailVehiculeComponent -->
<g id="node8" class="node">
<title>DetailVehiculeComponent</title>
<polygon fill="#ffffb3" stroke="black" points="3831.07,-84.8 3664.93,-84.8 3664.93,-48.8 3831.07,-48.8 3831.07,-84.8"/>
<text text-anchor="middle" x="3748" y="-62.6" font-family="Times,serif" font-size="14.00">DetailVehiculeComponent</text>
</g>
<!-- DetailVehiculeComponent&#45;&gt;AppModule -->
<g id="edge11" class="edge">
<title>DetailVehiculeComponent&#45;&gt;AppModule</title>
<path fill="none" stroke="black" d="M3748,-84.83C3748,-101.86 3748,-124.8 3748,-124.8 3748,-124.8 2998.66,-124.8 2998.66,-124.8"/>
<polygon fill="black" stroke="black" points="2998.66,-121.3 2988.66,-124.8 2998.66,-128.3 2998.66,-121.3"/>
</g>
<!-- EnteteAdminComponent -->
<g id="node9" class="node">
<title>EnteteAdminComponent</title>
<polygon fill="#ffffb3" stroke="black" points="3646.98,-84.8 3491.02,-84.8 3491.02,-48.8 3646.98,-48.8 3646.98,-84.8"/>
<text text-anchor="middle" x="3569" y="-62.6" font-family="Times,serif" font-size="14.00">EnteteAdminComponent</text>
</g>
<!-- EnteteAdminComponent&#45;&gt;AppModule -->
<g id="edge12" class="edge">
<title>EnteteAdminComponent&#45;&gt;AppModule</title>
<path fill="none" stroke="black" d="M3569,-84.83C3569,-101.2 3569,-122.8 3569,-122.8 3569,-122.8 2998.78,-122.8 2998.78,-122.8"/>
<polygon fill="black" stroke="black" points="2998.78,-119.3 2988.78,-122.8 2998.78,-126.3 2998.78,-119.3"/>
</g>
<!-- EnteteCorpsComponent -->
<g id="node10" class="node">
<title>EnteteCorpsComponent</title>
<polygon fill="#ffffb3" stroke="black" points="3473.04,-84.8 3322.96,-84.8 3322.96,-48.8 3473.04,-48.8 3473.04,-84.8"/>
<text text-anchor="middle" x="3398" y="-62.6" font-family="Times,serif" font-size="14.00">EnteteCorpsComponent</text>
</g>
<!-- EnteteCorpsComponent&#45;&gt;AppModule -->
<g id="edge13" class="edge">
<title>EnteteCorpsComponent&#45;&gt;AppModule</title>
<path fill="none" stroke="black" d="M3372.91,-84.99C3372.91,-99.98 3372.91,-118.8 3372.91,-118.8 3372.91,-118.8 2999,-118.8 2999,-118.8"/>
<polygon fill="black" stroke="black" points="2999,-115.3 2989,-118.8 2999,-122.3 2999,-115.3"/>
</g>
<!-- EnteteCorpsComponent&#45;&gt;AppModule -->
<g id="edge14" class="edge">
<title>EnteteCorpsComponent&#45;&gt;AppModule</title>
<path fill="none" stroke="black" d="M3423.09,-85.08C3423.09,-100.75 3423.09,-120.8 3423.09,-120.8 3423.09,-120.8 2998.83,-120.8 2998.83,-120.8"/>
<polygon fill="black" stroke="black" points="2998.83,-117.3 2988.83,-120.8 2998.83,-124.3 2998.83,-117.3"/>
</g>
<!-- FiltreVehiculeComponent -->
<g id="node11" class="node">
<title>FiltreVehiculeComponent</title>
<polygon fill="#ffffb3" stroke="black" points="3305.19,-84.8 3142.81,-84.8 3142.81,-48.8 3305.19,-48.8 3305.19,-84.8"/>
<text text-anchor="middle" x="3224" y="-62.6" font-family="Times,serif" font-size="14.00">FiltreVehiculeComponent</text>
</g>
<!-- FiltreVehiculeComponent&#45;&gt;AppModule -->
<g id="edge15" class="edge">
<title>FiltreVehiculeComponent&#45;&gt;AppModule</title>
<path fill="none" stroke="black" d="M3224,-84.85C3224,-99.17 3224,-116.8 3224,-116.8 3224,-116.8 2998.77,-116.8 2998.77,-116.8"/>
<polygon fill="black" stroke="black" points="2998.77,-113.3 2988.77,-116.8 2998.77,-120.3 2998.77,-113.3"/>
</g>
<!-- ListeVehiculeComponent -->
<g id="node12" class="node">
<title>ListeVehiculeComponent</title>
<polygon fill="#ffffb3" stroke="black" points="3124.86,-84.8 2965.14,-84.8 2965.14,-48.8 3124.86,-48.8 3124.86,-84.8"/>
<text text-anchor="middle" x="3045" y="-62.6" font-family="Times,serif" font-size="14.00">ListeVehiculeComponent</text>
</g>
<!-- ListeVehiculeComponent&#45;&gt;AppModule -->
<g id="edge16" class="edge">
<title>ListeVehiculeComponent&#45;&gt;AppModule</title>
<path fill="none" stroke="black" d="M2976.95,-84.91C2976.95,-84.91 2976.95,-103.79 2976.95,-103.79"/>
<polygon fill="black" stroke="black" points="2973.45,-103.79 2976.95,-113.79 2980.45,-103.79 2973.45,-103.79"/>
</g>
<!-- NavigationGeneraleComponent -->
<g id="node13" class="node">
<title>NavigationGeneraleComponent</title>
<polygon fill="#ffffb3" stroke="black" points="2947.06,-84.8 2752.94,-84.8 2752.94,-48.8 2947.06,-48.8 2947.06,-84.8"/>
<text text-anchor="middle" x="2850" y="-62.6" font-family="Times,serif" font-size="14.00">NavigationGeneraleComponent</text>
</g>
<!-- NavigationGeneraleComponent&#45;&gt;AppModule -->
<g id="edge17" class="edge">
<title>NavigationGeneraleComponent&#45;&gt;AppModule</title>
<path fill="none" stroke="black" d="M2919.12,-84.91C2919.12,-84.91 2919.12,-103.79 2919.12,-103.79"/>
<polygon fill="black" stroke="black" points="2915.62,-103.79 2919.12,-113.79 2922.62,-103.79 2915.62,-103.79"/>
</g>
<!-- NavigationGeneraleComponent&#45;&gt;AppModule -->
<g id="edge18" class="edge">
<title>NavigationGeneraleComponent&#45;&gt;AppModule</title>
<path fill="none" stroke="black" d="M2933.08,-84.91C2933.08,-84.91 2933.08,-103.79 2933.08,-103.79"/>
<polygon fill="black" stroke="black" points="2929.58,-103.79 2933.08,-113.79 2936.58,-103.79 2929.58,-103.79"/>
</g>
<!-- NouveauVehiculeComponent -->
<g id="node14" class="node">
<title>NouveauVehiculeComponent</title>
<polygon fill="#ffffb3" stroke="black" points="2735.4,-84.8 2552.6,-84.8 2552.6,-48.8 2735.4,-48.8 2735.4,-84.8"/>
<text text-anchor="middle" x="2644" y="-62.6" font-family="Times,serif" font-size="14.00">NouveauVehiculeComponent</text>
</g>
<!-- NouveauVehiculeComponent&#45;&gt;AppModule -->
<g id="edge19" class="edge">
<title>NouveauVehiculeComponent&#45;&gt;AppModule</title>
<path fill="none" stroke="black" d="M2644,-84.85C2644,-99.17 2644,-116.8 2644,-116.8 2644,-116.8 2895.19,-116.8 2895.19,-116.8"/>
<polygon fill="black" stroke="black" points="2895.19,-120.3 2905.19,-116.8 2895.19,-113.3 2895.19,-120.3"/>
</g>
<!-- NouvelleAnnonceComponent -->
<g id="node15" class="node">
<title>NouvelleAnnonceComponent</title>
<polygon fill="#ffffb3" stroke="black" points="2534.69,-84.8 2351.31,-84.8 2351.31,-48.8 2534.69,-48.8 2534.69,-84.8"/>
<text text-anchor="middle" x="2443" y="-62.6" font-family="Times,serif" font-size="14.00">NouvelleAnnonceComponent</text>
</g>
<!-- NouvelleAnnonceComponent&#45;&gt;AppModule -->
<g id="edge20" class="edge">
<title>NouvelleAnnonceComponent&#45;&gt;AppModule</title>
<path fill="none" stroke="black" d="M2443,-84.99C2443,-99.98 2443,-118.8 2443,-118.8 2443,-118.8 2895.33,-118.8 2895.33,-118.8"/>
<polygon fill="black" stroke="black" points="2895.33,-122.3 2905.33,-118.8 2895.33,-115.3 2895.33,-122.3"/>
</g>
<!-- ResaCovoiturageEncoursComponent -->
<g id="node16" class="node">
<title>ResaCovoiturageEncoursComponent</title>
<polygon fill="#ffffb3" stroke="black" points="2333.62,-84.8 2110.38,-84.8 2110.38,-48.8 2333.62,-48.8 2333.62,-84.8"/>
<text text-anchor="middle" x="2222" y="-62.6" font-family="Times,serif" font-size="14.00">ResaCovoiturageEncoursComponent</text>
</g>
<!-- ResaCovoiturageEncoursComponent&#45;&gt;AppModule -->
<g id="edge21" class="edge">
<title>ResaCovoiturageEncoursComponent&#45;&gt;AppModule</title>
<path fill="none" stroke="black" d="M2222,-85.08C2222,-100.75 2222,-120.8 2222,-120.8 2222,-120.8 2895.15,-120.8 2895.15,-120.8"/>
<polygon fill="black" stroke="black" points="2895.15,-124.3 2905.15,-120.8 2895.15,-117.3 2895.15,-124.3"/>
</g>
<!-- ResaCovoiturageHistoriqueComponent -->
<g id="node17" class="node">
<title>ResaCovoiturageHistoriqueComponent</title>
<polygon fill="#ffffb3" stroke="black" points="2092.35,-84.8 1855.65,-84.8 1855.65,-48.8 2092.35,-48.8 2092.35,-84.8"/>
<text text-anchor="middle" x="1974" y="-62.6" font-family="Times,serif" font-size="14.00">ResaCovoiturageHistoriqueComponent</text>
</g>
<!-- ResaCovoiturageHistoriqueComponent&#45;&gt;AppModule -->
<g id="edge22" class="edge">
<title>ResaCovoiturageHistoriqueComponent&#45;&gt;AppModule</title>
<path fill="none" stroke="black" d="M1974,-84.83C1974,-101.2 1974,-122.8 1974,-122.8 1974,-122.8 2895.19,-122.8 2895.19,-122.8"/>
<polygon fill="black" stroke="black" points="2895.19,-126.3 2905.19,-122.8 2895.19,-119.3 2895.19,-126.3"/>
</g>
<!-- ResaVehiculeEncoursComponent -->
<g id="node18" class="node">
<title>ResaVehiculeEncoursComponent</title>
<polygon fill="#ffffb3" stroke="black" points="1837.45,-84.8 1632.55,-84.8 1632.55,-48.8 1837.45,-48.8 1837.45,-84.8"/>
<text text-anchor="middle" x="1735" y="-62.6" font-family="Times,serif" font-size="14.00">ResaVehiculeEncoursComponent</text>
</g>
<!-- ResaVehiculeEncoursComponent&#45;&gt;AppModule -->
<g id="edge23" class="edge">
<title>ResaVehiculeEncoursComponent&#45;&gt;AppModule</title>
<path fill="none" stroke="black" d="M1735,-84.82C1735,-102.17 1735,-125.8 1735,-125.8 1735,-125.8 2895.28,-125.8 2895.28,-125.8"/>
<polygon fill="black" stroke="black" points="2895.28,-129.3 2905.28,-125.8 2895.28,-122.3 2895.28,-129.3"/>
</g>
<!-- ResaVehiculeHistoriqueComponent -->
<g id="node19" class="node">
<title>ResaVehiculeHistoriqueComponent</title>
<polygon fill="#ffffb3" stroke="black" points="1614.17,-84.8 1395.83,-84.8 1395.83,-48.8 1614.17,-48.8 1614.17,-84.8"/>
<text text-anchor="middle" x="1505" y="-62.6" font-family="Times,serif" font-size="14.00">ResaVehiculeHistoriqueComponent</text>
</g>
<!-- ResaVehiculeHistoriqueComponent&#45;&gt;AppModule -->
<g id="edge24" class="edge">
<title>ResaVehiculeHistoriqueComponent&#45;&gt;AppModule</title>
<path fill="none" stroke="black" d="M1505,-85.1C1505,-103.07 1505,-127.8 1505,-127.8 1505,-127.8 2895.01,-127.8 2895.01,-127.8"/>
<polygon fill="black" stroke="black" points="2895.01,-131.3 2905.01,-127.8 2895.01,-124.3 2895.01,-131.3"/>
</g>
<!-- ReservationsCovoiturageComponent -->
<g id="node20" class="node">
<title>ReservationsCovoiturageComponent</title>
<polygon fill="#ffffb3" stroke="black" points="1377.35,-84.8 1154.65,-84.8 1154.65,-48.8 1377.35,-48.8 1377.35,-84.8"/>
<text text-anchor="middle" x="1266" y="-62.6" font-family="Times,serif" font-size="14.00">ReservationsCovoiturageComponent</text>
</g>
<!-- ReservationsCovoiturageComponent&#45;&gt;AppModule -->
<g id="edge25" class="edge">
<title>ReservationsCovoiturageComponent&#45;&gt;AppModule</title>
<path fill="none" stroke="black" d="M1266,-85.02C1266,-103.63 1266,-129.8 1266,-129.8 1266,-129.8 2895.03,-129.8 2895.03,-129.8"/>
<polygon fill="black" stroke="black" points="2895.03,-133.3 2905.03,-129.8 2895.03,-126.3 2895.03,-133.3"/>
</g>
<!-- ReservationsVehiculeComponent -->
<g id="node21" class="node">
<title>ReservationsVehiculeComponent</title>
<polygon fill="#ffffb3" stroke="black" points="1136.18,-84.8 931.82,-84.8 931.82,-48.8 1136.18,-48.8 1136.18,-84.8"/>
<text text-anchor="middle" x="1034" y="-62.6" font-family="Times,serif" font-size="14.00">ReservationsVehiculeComponent</text>
</g>
<!-- ReservationsVehiculeComponent&#45;&gt;AppModule -->
<g id="edge26" class="edge">
<title>ReservationsVehiculeComponent&#45;&gt;AppModule</title>
<path fill="none" stroke="black" d="M1034,-84.91C1034,-104.14 1034,-131.8 1034,-131.8 1034,-131.8 2895.27,-131.8 2895.27,-131.8"/>
<polygon fill="black" stroke="black" points="2895.27,-135.3 2905.27,-131.8 2895.27,-128.3 2895.27,-135.3"/>
</g>
<!-- ReserverCovoiturageComponent -->
<g id="node22" class="node">
<title>ReserverCovoiturageComponent</title>
<polygon fill="#ffffb3" stroke="black" points="914.29,-84.8 713.71,-84.8 713.71,-48.8 914.29,-48.8 914.29,-84.8"/>
<text text-anchor="middle" x="814" y="-62.6" font-family="Times,serif" font-size="14.00">ReserverCovoiturageComponent</text>
</g>
<!-- ReserverCovoiturageComponent&#45;&gt;AppModule -->
<g id="edge27" class="edge">
<title>ReserverCovoiturageComponent&#45;&gt;AppModule</title>
<path fill="none" stroke="black" d="M814,-85.02C814,-105.17 814,-134.8 814,-134.8 814,-134.8 2894.87,-134.8 2894.87,-134.8"/>
<polygon fill="black" stroke="black" points="2894.87,-138.3 2904.87,-134.8 2894.87,-131.3 2894.87,-138.3"/>
</g>
<!-- ReserverVehiculeComponent -->
<g id="node23" class="node">
<title>ReserverVehiculeComponent</title>
<polygon fill="#ffffb3" stroke="black" points="695.61,-84.8 514.39,-84.8 514.39,-48.8 695.61,-48.8 695.61,-84.8"/>
<text text-anchor="middle" x="605" y="-62.6" font-family="Times,serif" font-size="14.00">ReserverVehiculeComponent</text>
</g>
<!-- ReserverVehiculeComponent&#45;&gt;AppModule -->
<g id="edge28" class="edge">
<title>ReserverVehiculeComponent&#45;&gt;AppModule</title>
<path fill="none" stroke="black" d="M605,-84.83C605,-105.57 605,-136.8 605,-136.8 605,-136.8 2895.11,-136.8 2895.11,-136.8"/>
<polygon fill="black" stroke="black" points="2895.11,-140.3 2905.11,-136.8 2895.11,-133.3 2895.11,-140.3"/>
</g>
<!-- SousMenuPageComponent -->
<g id="node24" class="node">
<title>SousMenuPageComponent</title>
<polygon fill="#ffffb3" stroke="black" points="496.43,-84.8 327.57,-84.8 327.57,-48.8 496.43,-48.8 496.43,-84.8"/>
<text text-anchor="middle" x="412" y="-62.6" font-family="Times,serif" font-size="14.00">SousMenuPageComponent</text>
</g>
<!-- SousMenuPageComponent&#45;&gt;AppModule -->
<g id="edge29" class="edge">
<title>SousMenuPageComponent&#45;&gt;AppModule</title>
<path fill="none" stroke="black" d="M440.07,-84.97C440.07,-106.3 440.07,-138.8 440.07,-138.8 440.07,-138.8 2895.32,-138.8 2895.32,-138.8"/>
<polygon fill="black" stroke="black" points="2895.32,-142.3 2905.32,-138.8 2895.32,-135.3 2895.32,-142.3"/>
</g>
<!-- SousMenuPageComponent&#45;&gt;AppModule -->
<g id="edge30" class="edge">
<title>SousMenuPageComponent&#45;&gt;AppModule</title>
<path fill="none" stroke="black" d="M383.93,-85.09C383.93,-107.01 383.93,-140.8 383.93,-140.8 383.93,-140.8 2895.18,-140.8 2895.18,-140.8"/>
<polygon fill="black" stroke="black" points="2895.18,-144.3 2905.18,-140.8 2895.18,-137.3 2895.18,-144.3"/>
</g>
<!-- TitrePageComponent -->
<g id="node25" class="node">
<title>TitrePageComponent</title>
<polygon fill="#ffffb3" stroke="black" points="309.75,-84.8 174.25,-84.8 174.25,-48.8 309.75,-48.8 309.75,-84.8"/>
<text text-anchor="middle" x="242" y="-62.6" font-family="Times,serif" font-size="14.00">TitrePageComponent</text>
</g>
<!-- TitrePageComponent&#45;&gt;AppModule -->
<g id="edge31" class="edge">
<title>TitrePageComponent&#45;&gt;AppModule</title>
<path fill="none" stroke="black" d="M219.37,-85.12C219.37,-108.46 219.37,-145.8 219.37,-145.8 219.37,-145.8 2895.25,-145.8 2895.25,-145.8"/>
<polygon fill="black" stroke="black" points="2895.25,-149.3 2905.25,-145.8 2895.25,-142.3 2895.25,-149.3"/>
</g>
<!-- TitrePageComponent&#45;&gt;AppModule -->
<g id="edge32" class="edge">
<title>TitrePageComponent&#45;&gt;AppModule</title>
<path fill="none" stroke="black" d="M264.63,-85.05C264.63,-107.82 264.63,-143.8 264.63,-143.8 264.63,-143.8 2895.14,-143.8 2895.14,-143.8"/>
<polygon fill="black" stroke="black" points="2895.14,-147.3 2905.14,-143.8 2895.14,-140.3 2895.14,-147.3"/>
</g>
<!-- VehiculeComponent -->
<g id="node26" class="node">
<title>VehiculeComponent</title>
<polygon fill="#ffffb3" stroke="black" points="155.86,-84.8 24.14,-84.8 24.14,-48.8 155.86,-48.8 155.86,-84.8"/>
<text text-anchor="middle" x="90" y="-62.6" font-family="Times,serif" font-size="14.00">VehiculeComponent</text>
</g>
<!-- VehiculeComponent&#45;&gt;AppModule -->
<g id="edge33" class="edge">
<title>VehiculeComponent&#45;&gt;AppModule</title>
<path fill="none" stroke="black" d="M90,-85.18C90,-109.08 90,-147.8 90,-147.8 90,-147.8 2895.23,-147.8 2895.23,-147.8"/>
<polygon fill="black" stroke="black" points="2895.23,-151.3 2905.23,-147.8 2895.23,-144.3 2895.23,-151.3"/>
</g>
<!-- AppComponent  -->
<g id="node29" class="node">
<title>AppComponent </title>
<polygon fill="#80b1d3" stroke="black" points="3001.44,-214.8 2892.56,-214.8 2892.56,-178.8 3001.44,-178.8 3001.44,-214.8"/>
<text text-anchor="middle" x="2947" y="-192.6" font-family="Times,serif" font-size="14.00">AppComponent </text>
</g>
<!-- AppModule&#45;&gt;AppComponent  -->
<g id="edge35" class="edge">
<title>AppModule&#45;&gt;AppComponent </title>
<path fill="none" stroke="black" stroke-dasharray="1,5" d="M2947,-149.91C2947,-149.91 2947,-168.79 2947,-168.79"/>
<polygon fill="black" stroke="black" points="2943.5,-168.79 2947,-178.79 2950.5,-168.79 2943.5,-168.79"/>
</g>
<!-- AppRoutingModule -->
<g id="node28" class="node">
<title>AppRoutingModule</title>
<polygon fill="#8dd3c7" stroke="black" points="5216.27,-84.8 5213.27,-88.8 5192.27,-88.8 5189.27,-84.8 5087.73,-84.8 5087.73,-48.8 5216.27,-48.8 5216.27,-84.8"/>
<text text-anchor="middle" x="5152" y="-62.6" font-family="Times,serif" font-size="14.00">AppRoutingModule</text>
</g>
<!-- AppRoutingModule&#45;&gt;AppModule -->
<g id="edge34" class="edge">
<title>AppRoutingModule&#45;&gt;AppModule</title>
<path fill="none" stroke="black" d="M5152,-85.18C5152,-109.08 5152,-147.8 5152,-147.8 5152,-147.8 2999.08,-147.8 2999.08,-147.8"/>
<polygon fill="black" stroke="black" points="2999.08,-144.3 2989.08,-147.8 2999.08,-151.3 2999.08,-144.3"/>
</g>
</g>
</svg>
