<?xml version="1.0" encoding="UTF-8" standalone="no"?>
<!DOCTYPE svg PUBLIC "-//W3C//DTD SVG 1.1//EN"
 "http://www.w3.org/Graphics/SVG/1.1/DTD/svg11.dtd">
<!-- Generated by graphviz version 2.47.3 (20210619.1520)
 -->
<!-- Title: dependencies Pages: 1 -->
<svg width="5248pt" height="247pt"
 viewBox="0.00 0.00 5248.00 246.80" xmlns="http://www.w3.org/2000/svg" xmlns:xlink="http://www.w3.org/1999/xlink">
<g id="graph0" class="graph" transform="scale(1 1) rotate(0) translate(4 242.8)">
<title>dependencies</title>
<polygon fill="white" stroke="transparent" points="-4,4 -4,-242.8 5244,-242.8 5244,4 -4,4"/>
<text text-anchor="middle" x="2620" y="-8.2" font-family="sans-serif" font-size="14.00">dependencies</text>
<g id="clust1" class="cluster">
<title>cluster_AppModule</title>
<polygon fill="none" stroke="black" stroke-dasharray="1,5" points="8,-32.8 8,-230.8 5232,-230.8 5232,-32.8 8,-32.8"/>
</g>
<g id="clust2" class="cluster">
<title>cluster_AppModule_declarations</title>
<polygon fill="none" stroke="black" points="168,-40.8 168,-92.8 5224,-92.8 5224,-40.8 168,-40.8"/>
</g>
<g id="clust29" class="cluster">
<title>cluster_AppModule_imports</title>
<polygon fill="none" stroke="black" points="16,-40.8 16,-92.8 160,-92.8 160,-40.8 16,-40.8"/>
</g>
<g id="clust31" class="cluster">
<title>cluster_AppModule_bootstrap</title>
<polygon fill="none" stroke="black" points="2940,-170.8 2940,-222.8 3064,-222.8 3064,-170.8 2940,-170.8"/>
</g>
<!-- AnnoncesComponent -->
<g id="node1" class="node">
<title>AnnoncesComponent</title>
<polygon fill="#ffffb3" stroke="black" points="5215.81,-84.8 5078.19,-84.8 5078.19,-48.8 5215.81,-48.8 5215.81,-84.8"/>
<text text-anchor="middle" x="5147" y="-62.6" font-family="Times,serif" font-size="14.00">AnnoncesComponent</text>
</g>
<!-- AppModule -->
<g id="node27" class="node">
<title>AppModule</title>
<polygon fill="#8dd3c7" stroke="black" points="3043.66,-149.8 3040.66,-153.8 3019.66,-153.8 3016.66,-149.8 2960.34,-149.8 2960.34,-113.8 3043.66,-113.8 3043.66,-149.8"/>
<text text-anchor="middle" x="3002" y="-127.6" font-family="Times,serif" font-size="14.00">AppModule</text>
</g>
<!-- AnnoncesComponent&#45;&gt;AppModule -->
<g id="edge1" class="edge">
<title>AnnoncesComponent&#45;&gt;AppModule</title>
<path fill="none" stroke="black" d="M5147,-85.18C5147,-109.08 5147,-147.8 5147,-147.8 5147,-147.8 3053.89,-147.8 3053.89,-147.8"/>
<polygon fill="black" stroke="black" points="3053.89,-144.3 3043.89,-147.8 3053.89,-151.3 3053.89,-144.3"/>
</g>
<!-- AnnoncesEncoursComponent -->
<g id="node2" class="node">
<title>AnnoncesEncoursComponent</title>
<polygon fill="#ffffb3" stroke="black" points="5060.69,-84.8 4877.31,-84.8 4877.31,-48.8 5060.69,-48.8 5060.69,-84.8"/>
<text text-anchor="middle" x="4969" y="-62.6" font-family="Times,serif" font-size="14.00">AnnoncesEncoursComponent</text>
</g>
<!-- AnnoncesEncoursComponent&#45;&gt;AppModule -->
<g id="edge2" class="edge">
<title>AnnoncesEncoursComponent&#45;&gt;AppModule</title>
<path fill="none" stroke="black" d="M4969,-85.12C4969,-108.46 4969,-145.8 4969,-145.8 4969,-145.8 3053.99,-145.8 3053.99,-145.8"/>
<polygon fill="black" stroke="black" points="3053.99,-142.3 3043.99,-145.8 3053.99,-149.3 3053.99,-142.3"/>
</g>
<!-- AnnoncesHistoriqueComponent -->
<g id="node3" class="node">
<title>AnnoncesHistoriqueComponent</title>
<polygon fill="#ffffb3" stroke="black" points="4859.41,-84.8 4662.59,-84.8 4662.59,-48.8 4859.41,-48.8 4859.41,-84.8"/>
<text text-anchor="middle" x="4761" y="-62.6" font-family="Times,serif" font-size="14.00">AnnoncesHistoriqueComponent</text>
</g>
<!-- AnnoncesHistoriqueComponent&#45;&gt;AppModule -->
<g id="edge3" class="edge">
<title>AnnoncesHistoriqueComponent&#45;&gt;AppModule</title>
<path fill="none" stroke="black" d="M4761,-85.05C4761,-107.82 4761,-143.8 4761,-143.8 4761,-143.8 3053.75,-143.8 3053.75,-143.8"/>
<polygon fill="black" stroke="black" points="3053.75,-140.3 3043.75,-143.8 3053.75,-147.3 3053.75,-140.3"/>
</g>
<!-- AppComponent -->
<g id="node4" class="node">
<title>AppComponent</title>
<polygon fill="#ffffb3" stroke="black" points="4644.94,-84.8 4539.06,-84.8 4539.06,-48.8 4644.94,-48.8 4644.94,-84.8"/>
<text text-anchor="middle" x="4592" y="-62.6" font-family="Times,serif" font-size="14.00">AppComponent</text>
</g>
<!-- AppComponent&#45;&gt;AppModule -->
<g id="edge4" class="edge">
<title>AppComponent&#45;&gt;AppModule</title>
<path fill="none" stroke="black" d="M4592,-84.96C4592,-107.15 4592,-141.8 4592,-141.8 4592,-141.8 3053.71,-141.8 3053.71,-141.8"/>
<polygon fill="black" stroke="black" points="3053.71,-138.3 3043.71,-141.8 3053.71,-145.3 3053.71,-138.3"/>
</g>
<!-- CategorieVehiculeComponent -->
<g id="node5" class="node">
<title>CategorieVehiculeComponent</title>
<polygon fill="#ffffb3" stroke="black" points="4521.29,-84.8 4334.71,-84.8 4334.71,-48.8 4521.29,-48.8 4521.29,-84.8"/>
<text text-anchor="middle" x="4428" y="-62.6" font-family="Times,serif" font-size="14.00">CategorieVehiculeComponent</text>
</g>
<!-- CategorieVehiculeComponent&#45;&gt;AppModule -->
<g id="edge5" class="edge">
<title>CategorieVehiculeComponent&#45;&gt;AppModule</title>
<path fill="none" stroke="black" d="M4428,-84.84C4428,-106.46 4428,-139.8 4428,-139.8 4428,-139.8 3053.91,-139.8 3053.91,-139.8"/>
<polygon fill="black" stroke="black" points="3053.91,-136.3 3043.91,-139.8 3053.91,-143.3 3053.91,-136.3"/>
</g>
<!-- ContenuPageComponent -->
<g id="node6" class="node">
<title>ContenuPageComponent</title>
<polygon fill="#ffffb3" stroke="black" points="4316.99,-84.8 4161.01,-84.8 4161.01,-48.8 4316.99,-48.8 4316.99,-84.8"/>
<text text-anchor="middle" x="4239" y="-62.6" font-family="Times,serif" font-size="14.00">ContenuPageComponent</text>
</g>
<!-- ContenuPageComponent&#45;&gt;AppModule -->
<g id="edge6" class="edge">
<title>ContenuPageComponent&#45;&gt;AppModule</title>
<path fill="none" stroke="black" d="M4239,-84.93C4239,-105.37 4239,-135.8 4239,-135.8 4239,-135.8 3053.87,-135.8 3053.87,-135.8"/>
<polygon fill="black" stroke="black" points="3053.87,-132.3 3043.87,-135.8 3053.87,-139.3 3053.87,-132.3"/>
</g>
<!-- ContenuPageComponent&#45;&gt;AppModule -->
<g id="edge7" class="edge">
<title>ContenuPageComponent&#45;&gt;AppModule</title>
<path fill="none" stroke="black" d="M4200,-85.11C4200,-104.95 4200,-133.8 4200,-133.8 4200,-133.8 3053.94,-133.8 3053.94,-133.8"/>
<polygon fill="black" stroke="black" points="3053.94,-130.3 3043.94,-133.8 3053.94,-137.3 3053.94,-130.3"/>
</g>
<!-- ContenuPageComponent&#45;&gt;AppModule -->
<g id="edge8" class="edge">
<title>ContenuPageComponent&#45;&gt;AppModule</title>
<path fill="none" stroke="black" d="M4278,-85.08C4278,-106.12 4278,-137.8 4278,-137.8 4278,-137.8 3053.73,-137.8 3053.73,-137.8"/>
<polygon fill="black" stroke="black" points="3053.73,-134.3 3043.73,-137.8 3053.73,-141.3 3053.73,-134.3"/>
</g>
<!-- CorpsPageComponent -->
<g id="node7" class="node">
<title>CorpsPageComponent</title>
<polygon fill="#ffffb3" stroke="black" points="4142.99,-84.8 4001.01,-84.8 4001.01,-48.8 4142.99,-48.8 4142.99,-84.8"/>
<text text-anchor="middle" x="4072" y="-62.6" font-family="Times,serif" font-size="14.00">CorpsPageComponent</text>
</g>
<!-- CorpsPageComponent&#45;&gt;AppModule -->
<g id="edge9" class="edge">
<title>CorpsPageComponent&#45;&gt;AppModule</title>
<path fill="none" stroke="black" d="M4095.66,-84.97C4095.66,-103.89 4095.66,-130.8 4095.66,-130.8 4095.66,-130.8 3053.87,-130.8 3053.87,-130.8"/>
<polygon fill="black" stroke="black" points="3053.87,-127.3 3043.87,-130.8 3053.87,-134.3 3053.87,-127.3"/>
</g>
<!-- CorpsPageComponent&#45;&gt;AppModule -->
<g id="edge10" class="edge">
<title>CorpsPageComponent&#45;&gt;AppModule</title>
<path fill="none" stroke="black" d="M4048.34,-85.07C4048.34,-103.36 4048.34,-128.8 4048.34,-128.8 4048.34,-128.8 3053.66,-128.8 3053.66,-128.8"/>
<polygon fill="black" stroke="black" points="3053.66,-125.3 3043.66,-128.8 3053.66,-132.3 3053.66,-125.3"/>
</g>
<!-- DetailVehiculeComponent -->
<g id="node8" class="node">
<title>DetailVehiculeComponent</title>
<polygon fill="#ffffb3" stroke="black" points="3983.07,-84.8 3816.93,-84.8 3816.93,-48.8 3983.07,-48.8 3983.07,-84.8"/>
<text text-anchor="middle" x="3900" y="-62.6" font-family="Times,serif" font-size="14.00">DetailVehiculeComponent</text>
</g>
<!-- DetailVehiculeComponent&#45;&gt;AppModule -->
<g id="edge11" class="edge">
<title>DetailVehiculeComponent&#45;&gt;AppModule</title>
<path fill="none" stroke="black" d="M3900,-84.8C3900,-102.48 3900,-126.8 3900,-126.8 3900,-126.8 3053.81,-126.8 3053.81,-126.8"/>
<polygon fill="black" stroke="black" points="3053.81,-123.3 3043.81,-126.8 3053.81,-130.3 3053.81,-123.3"/>
</g>
<!-- EnteteAdminComponent -->
<g id="node9" class="node">
<title>EnteteAdminComponent</title>
<polygon fill="#ffffb3" stroke="black" points="3798.98,-84.8 3643.02,-84.8 3643.02,-48.8 3798.98,-48.8 3798.98,-84.8"/>
<text text-anchor="middle" x="3721" y="-62.6" font-family="Times,serif" font-size="14.00">EnteteAdminComponent</text>
</g>
<!-- EnteteAdminComponent&#45;&gt;AppModule -->
<g id="edge12" class="edge">
<title>EnteteAdminComponent&#45;&gt;AppModule</title>
<path fill="none" stroke="black" d="M3721,-84.83C3721,-101.86 3721,-124.8 3721,-124.8 3721,-124.8 3053.76,-124.8 3053.76,-124.8"/>
<polygon fill="black" stroke="black" points="3053.76,-121.3 3043.76,-124.8 3053.76,-128.3 3053.76,-121.3"/>
</g>
<!-- EnteteCorpsComponent -->
<g id="node10" class="node">
<title>EnteteCorpsComponent</title>
<polygon fill="#ffffb3" stroke="black" points="3625.04,-84.8 3474.96,-84.8 3474.96,-48.8 3625.04,-48.8 3625.04,-84.8"/>
<text text-anchor="middle" x="3550" y="-62.6" font-family="Times,serif" font-size="14.00">EnteteCorpsComponent</text>
</g>
<!-- EnteteCorpsComponent&#45;&gt;AppModule -->
<g id="edge13" class="edge">
<title>EnteteCorpsComponent&#45;&gt;AppModule</title>
<path fill="none" stroke="black" d="M3524.91,-85.08C3524.91,-100.75 3524.91,-120.8 3524.91,-120.8 3524.91,-120.8 3053.91,-120.8 3053.91,-120.8"/>
<polygon fill="black" stroke="black" points="3053.91,-117.3 3043.91,-120.8 3053.91,-124.3 3053.91,-117.3"/>
</g>
<!-- EnteteCorpsComponent&#45;&gt;AppModule -->
<g id="edge14" class="edge">
<title>EnteteCorpsComponent&#45;&gt;AppModule</title>
<path fill="none" stroke="black" d="M3575.09,-84.83C3575.09,-101.2 3575.09,-122.8 3575.09,-122.8 3575.09,-122.8 3053.68,-122.8 3053.68,-122.8"/>
<polygon fill="black" stroke="black" points="3053.68,-119.3 3043.68,-122.8 3053.68,-126.3 3053.68,-119.3"/>
</g>
<!-- FiltreVehiculeComponent -->
<g id="node11" class="node">
<title>FiltreVehiculeComponent</title>
<polygon fill="#ffffb3" stroke="black" points="3457.19,-84.8 3294.81,-84.8 3294.81,-48.8 3457.19,-48.8 3457.19,-84.8"/>
<text text-anchor="middle" x="3376" y="-62.6" font-family="Times,serif" font-size="14.00">FiltreVehiculeComponent</text>
</g>
<!-- FiltreVehiculeComponent&#45;&gt;AppModule -->
<g id="edge15" class="edge">
<title>FiltreVehiculeComponent&#45;&gt;AppModule</title>
<path fill="none" stroke="black" d="M3376,-84.99C3376,-99.98 3376,-118.8 3376,-118.8 3376,-118.8 3053.81,-118.8 3053.81,-118.8"/>
<polygon fill="black" stroke="black" points="3053.81,-115.3 3043.81,-118.8 3053.81,-122.3 3053.81,-115.3"/>
</g>
<!-- ListeVehiculeComponent -->
<g id="node12" class="node">
<title>ListeVehiculeComponent</title>
<polygon fill="#ffffb3" stroke="black" points="3276.86,-84.8 3117.14,-84.8 3117.14,-48.8 3276.86,-48.8 3276.86,-84.8"/>
<text text-anchor="middle" x="3197" y="-62.6" font-family="Times,serif" font-size="14.00">ListeVehiculeComponent</text>
</g>
<!-- ListeVehiculeComponent&#45;&gt;AppModule -->
<g id="edge16" class="edge">
<title>ListeVehiculeComponent&#45;&gt;AppModule</title>
<path fill="none" stroke="black" d="M3197,-84.85C3197,-99.17 3197,-116.8 3197,-116.8 3197,-116.8 3053.83,-116.8 3053.83,-116.8"/>
<polygon fill="black" stroke="black" points="3053.83,-113.3 3043.83,-116.8 3053.83,-120.3 3053.83,-113.3"/>
</g>
<!-- NavigationGeneraleComponent -->
<g id="node13" class="node">
<title>NavigationGeneraleComponent</title>
<polygon fill="#ffffb3" stroke="black" points="3099.06,-84.8 2904.94,-84.8 2904.94,-48.8 3099.06,-48.8 3099.06,-84.8"/>
<text text-anchor="middle" x="3002" y="-62.6" font-family="Times,serif" font-size="14.00">NavigationGeneraleComponent</text>
</g>
<!-- NavigationGeneraleComponent&#45;&gt;AppModule -->
<g id="edge17" class="edge">
<title>NavigationGeneraleComponent&#45;&gt;AppModule</title>
<path fill="none" stroke="black" d="M2988.06,-84.91C2988.06,-84.91 2988.06,-103.79 2988.06,-103.79"/>
<polygon fill="black" stroke="black" points="2984.56,-103.79 2988.06,-113.79 2991.56,-103.79 2984.56,-103.79"/>
</g>
<!-- NavigationGeneraleComponent&#45;&gt;AppModule -->
<g id="edge18" class="edge">
<title>NavigationGeneraleComponent&#45;&gt;AppModule</title>
<path fill="none" stroke="black" d="M3015.94,-84.91C3015.94,-84.91 3015.94,-103.79 3015.94,-103.79"/>
<polygon fill="black" stroke="black" points="3012.44,-103.79 3015.94,-113.79 3019.44,-103.79 3012.44,-103.79"/>
</g>
<!-- NouveauVehiculeComponent -->
<g id="node14" class="node">
<title>NouveauVehiculeComponent</title>
<polygon fill="#ffffb3" stroke="black" points="2887.4,-84.8 2704.6,-84.8 2704.6,-48.8 2887.4,-48.8 2887.4,-84.8"/>
<text text-anchor="middle" x="2796" y="-62.6" font-family="Times,serif" font-size="14.00">NouveauVehiculeComponent</text>
</g>
<!-- NouveauVehiculeComponent&#45;&gt;AppModule -->
<g id="edge19" class="edge">
<title>NouveauVehiculeComponent&#45;&gt;AppModule</title>
<path fill="none" stroke="black" d="M2796,-84.85C2796,-99.17 2796,-116.8 2796,-116.8 2796,-116.8 2950.31,-116.8 2950.31,-116.8"/>
<polygon fill="black" stroke="black" points="2950.31,-120.3 2960.31,-116.8 2950.31,-113.3 2950.31,-120.3"/>
</g>
<!-- NouvelleAnnonceComponent -->
<g id="node15" class="node">
<title>NouvelleAnnonceComponent</title>
<polygon fill="#ffffb3" stroke="black" points="2686.69,-84.8 2503.31,-84.8 2503.31,-48.8 2686.69,-48.8 2686.69,-84.8"/>
<text text-anchor="middle" x="2595" y="-62.6" font-family="Times,serif" font-size="14.00">NouvelleAnnonceComponent</text>
</g>
<!-- NouvelleAnnonceComponent&#45;&gt;AppModule -->
<g id="edge20" class="edge">
<title>NouvelleAnnonceComponent&#45;&gt;AppModule</title>
<path fill="none" stroke="black" d="M2595,-84.99C2595,-99.98 2595,-118.8 2595,-118.8 2595,-118.8 2949.98,-118.8 2949.98,-118.8"/>
<polygon fill="black" stroke="black" points="2949.98,-122.3 2959.98,-118.8 2949.98,-115.3 2949.98,-122.3"/>
</g>
<!-- ResaCovoiturageEncoursComponent -->
<g id="node16" class="node">
<title>ResaCovoiturageEncoursComponent</title>
<polygon fill="#ffffb3" stroke="black" points="2485.62,-84.8 2262.38,-84.8 2262.38,-48.8 2485.62,-48.8 2485.62,-84.8"/>
<text text-anchor="middle" x="2374" y="-62.6" font-family="Times,serif" font-size="14.00">ResaCovoiturageEncoursComponent</text>
</g>
<!-- ResaCovoiturageEncoursComponent&#45;&gt;AppModule -->
<g id="edge21" class="edge">
<title>ResaCovoiturageEncoursComponent&#45;&gt;AppModule</title>
<path fill="none" stroke="black" d="M2374,-85.08C2374,-100.75 2374,-120.8 2374,-120.8 2374,-120.8 2950.31,-120.8 2950.31,-120.8"/>
<polygon fill="black" stroke="black" points="2950.31,-124.3 2960.31,-120.8 2950.31,-117.3 2950.31,-124.3"/>
</g>
<!-- ResaCovoiturageHistoriqueComponent -->
<g id="node17" class="node">
<title>ResaCovoiturageHistoriqueComponent</title>
<polygon fill="#ffffb3" stroke="black" points="2244.35,-84.8 2007.65,-84.8 2007.65,-48.8 2244.35,-48.8 2244.35,-84.8"/>
<text text-anchor="middle" x="2126" y="-62.6" font-family="Times,serif" font-size="14.00">ResaCovoiturageHistoriqueComponent</text>
</g>
<!-- ResaCovoiturageHistoriqueComponent&#45;&gt;AppModule -->
<g id="edge22" class="edge">
<title>ResaCovoiturageHistoriqueComponent&#45;&gt;AppModule</title>
<path fill="none" stroke="black" d="M2126,-84.83C2126,-101.2 2126,-122.8 2126,-122.8 2126,-122.8 2950.34,-122.8 2950.34,-122.8"/>
<polygon fill="black" stroke="black" points="2950.34,-126.3 2960.34,-122.8 2950.34,-119.3 2950.34,-126.3"/>
</g>
<!-- ResaVehiculeEncoursComponent -->
<g id="node18" class="node">
<title>ResaVehiculeEncoursComponent</title>
<polygon fill="#ffffb3" stroke="black" points="1989.45,-84.8 1784.55,-84.8 1784.55,-48.8 1989.45,-48.8 1989.45,-84.8"/>
<text text-anchor="middle" x="1887" y="-62.6" font-family="Times,serif" font-size="14.00">ResaVehiculeEncoursComponent</text>
</g>
<!-- ResaVehiculeEncoursComponent&#45;&gt;AppModule -->
<g id="edge23" class="edge">
<title>ResaVehiculeEncoursComponent&#45;&gt;AppModule</title>
<path fill="none" stroke="black" d="M1887,-84.83C1887,-101.86 1887,-124.8 1887,-124.8 1887,-124.8 2950.33,-124.8 2950.33,-124.8"/>
<polygon fill="black" stroke="black" points="2950.33,-128.3 2960.33,-124.8 2950.33,-121.3 2950.33,-128.3"/>
</g>
<!-- ResaVehiculeHistoriqueComponent -->
<g id="node19" class="node">
<title>ResaVehiculeHistoriqueComponent</title>
<polygon fill="#ffffb3" stroke="black" points="1766.17,-84.8 1547.83,-84.8 1547.83,-48.8 1766.17,-48.8 1766.17,-84.8"/>
<text text-anchor="middle" x="1657" y="-62.6" font-family="Times,serif" font-size="14.00">ResaVehiculeHistoriqueComponent</text>
</g>
<!-- ResaVehiculeHistoriqueComponent&#45;&gt;AppModule -->
<g id="edge24" class="edge">
<title>ResaVehiculeHistoriqueComponent&#45;&gt;AppModule</title>
<path fill="none" stroke="black" d="M1657,-84.8C1657,-102.48 1657,-126.8 1657,-126.8 1657,-126.8 2950.27,-126.8 2950.27,-126.8"/>
<polygon fill="black" stroke="black" points="2950.27,-130.3 2960.27,-126.8 2950.27,-123.3 2950.27,-130.3"/>
</g>
<!-- ReservationsCovoiturageComponent -->
<g id="node20" class="node">
<title>ReservationsCovoiturageComponent</title>
<polygon fill="#ffffb3" stroke="black" points="1529.35,-84.8 1306.65,-84.8 1306.65,-48.8 1529.35,-48.8 1529.35,-84.8"/>
<text text-anchor="middle" x="1418" y="-62.6" font-family="Times,serif" font-size="14.00">ReservationsCovoiturageComponent</text>
</g>
<!-- ReservationsCovoiturageComponent&#45;&gt;AppModule -->
<g id="edge25" class="edge">
<title>ReservationsCovoiturageComponent&#45;&gt;AppModule</title>
<path fill="none" stroke="black" d="M1418,-85.07C1418,-103.36 1418,-128.8 1418,-128.8 1418,-128.8 2950.04,-128.8 2950.04,-128.8"/>
<polygon fill="black" stroke="black" points="2950.04,-132.3 2960.04,-128.8 2950.04,-125.3 2950.04,-132.3"/>
</g>
<!-- ReservationsVehiculeComponent -->
<g id="node21" class="node">
<title>ReservationsVehiculeComponent</title>
<polygon fill="#ffffb3" stroke="black" points="1288.18,-84.8 1083.82,-84.8 1083.82,-48.8 1288.18,-48.8 1288.18,-84.8"/>
<text text-anchor="middle" x="1186" y="-62.6" font-family="Times,serif" font-size="14.00">ReservationsVehiculeComponent</text>
</g>
<!-- ReservationsVehiculeComponent&#45;&gt;AppModule -->
<g id="edge26" class="edge">
<title>ReservationsVehiculeComponent&#45;&gt;AppModule</title>
<path fill="none" stroke="black" d="M1186,-84.97C1186,-103.89 1186,-130.8 1186,-130.8 1186,-130.8 2950.22,-130.8 2950.22,-130.8"/>
<polygon fill="black" stroke="black" points="2950.22,-134.3 2960.22,-130.8 2950.22,-127.3 2950.22,-134.3"/>
</g>
<!-- ReserverCovoiturageComponent -->
<g id="node22" class="node">
<title>ReserverCovoiturageComponent</title>
<polygon fill="#ffffb3" stroke="black" points="1066.29,-84.8 865.71,-84.8 865.71,-48.8 1066.29,-48.8 1066.29,-84.8"/>
<text text-anchor="middle" x="966" y="-62.6" font-family="Times,serif" font-size="14.00">ReserverCovoiturageComponent</text>
</g>
<!-- ReserverCovoiturageComponent&#45;&gt;AppModule -->
<g id="edge27" class="edge">
<title>ReserverCovoiturageComponent&#45;&gt;AppModule</title>
<path fill="none" stroke="black" d="M966,-85.11C966,-104.95 966,-133.8 966,-133.8 966,-133.8 2949.94,-133.8 2949.94,-133.8"/>
<polygon fill="black" stroke="black" points="2949.94,-137.3 2959.94,-133.8 2949.94,-130.3 2949.94,-137.3"/>
</g>
<!-- ReserverVehiculeComponent -->
<g id="node23" class="node">
<title>ReserverVehiculeComponent</title>
<polygon fill="#ffffb3" stroke="black" points="847.61,-84.8 666.39,-84.8 666.39,-48.8 847.61,-48.8 847.61,-84.8"/>
<text text-anchor="middle" x="757" y="-62.6" font-family="Times,serif" font-size="14.00">ReserverVehiculeComponent</text>
</g>
<!-- ReserverVehiculeComponent&#45;&gt;AppModule -->
<g id="edge28" class="edge">
<title>ReserverVehiculeComponent&#45;&gt;AppModule</title>
<path fill="none" stroke="black" d="M757,-84.93C757,-105.37 757,-135.8 757,-135.8 757,-135.8 2950.14,-135.8 2950.14,-135.8"/>
<polygon fill="black" stroke="black" points="2950.14,-139.3 2960.14,-135.8 2950.14,-132.3 2950.14,-139.3"/>
</g>
<!-- SousMenuPageComponent -->
<g id="node24" class="node">
<title>SousMenuPageComponent</title>
<polygon fill="#ffffb3" stroke="black" points="648.43,-84.8 479.57,-84.8 479.57,-48.8 648.43,-48.8 648.43,-84.8"/>
<text text-anchor="middle" x="564" y="-62.6" font-family="Times,serif" font-size="14.00">SousMenuPageComponent</text>
</g>
<!-- SousMenuPageComponent&#45;&gt;AppModule -->
<g id="edge29" class="edge">
<title>SousMenuPageComponent&#45;&gt;AppModule</title>
<path fill="none" stroke="black" d="M592.07,-85.08C592.07,-106.12 592.07,-137.8 592.07,-137.8 592.07,-137.8 2950.17,-137.8 2950.17,-137.8"/>
<polygon fill="black" stroke="black" points="2950.17,-141.3 2960.17,-137.8 2950.17,-134.3 2950.17,-141.3"/>
</g>
<!-- SousMenuPageComponent&#45;&gt;AppModule -->
<g id="edge30" class="edge">
<title>SousMenuPageComponent&#45;&gt;AppModule</title>
<path fill="none" stroke="black" d="M535.93,-84.84C535.93,-106.46 535.93,-139.8 535.93,-139.8 535.93,-139.8 2950.23,-139.8 2950.23,-139.8"/>
<polygon fill="black" stroke="black" points="2950.23,-143.3 2960.23,-139.8 2950.23,-136.3 2950.23,-143.3"/>
</g>
<!-- TitrePageComponent -->
<g id="node25" class="node">
<title>TitrePageComponent</title>
<polygon fill="#ffffb3" stroke="black" points="461.75,-84.8 326.25,-84.8 326.25,-48.8 461.75,-48.8 461.75,-84.8"/>
<text text-anchor="middle" x="394" y="-62.6" font-family="Times,serif" font-size="14.00">TitrePageComponent</text>
</g>
<!-- TitrePageComponent&#45;&gt;AppModule -->
<g id="edge31" class="edge">
<title>TitrePageComponent&#45;&gt;AppModule</title>
<path fill="none" stroke="black" d="M371.37,-85.05C371.37,-107.82 371.37,-143.8 371.37,-143.8 371.37,-143.8 2950.15,-143.8 2950.15,-143.8"/>
<polygon fill="black" stroke="black" points="2950.15,-147.3 2960.15,-143.8 2950.15,-140.3 2950.15,-147.3"/>
</g>
<!-- TitrePageComponent&#45;&gt;AppModule -->
<g id="edge32" class="edge">
<title>TitrePageComponent&#45;&gt;AppModule</title>
<path fill="none" stroke="black" d="M416.63,-84.96C416.63,-107.15 416.63,-141.8 416.63,-141.8 416.63,-141.8 2950.34,-141.8 2950.34,-141.8"/>
<polygon fill="black" stroke="black" points="2950.34,-145.3 2960.34,-141.8 2950.34,-138.3 2950.34,-145.3"/>
</g>
<!-- VehiculeComponent -->
<g id="node26" class="node">
<title>VehiculeComponent</title>
<polygon fill="#ffffb3" stroke="black" points="307.86,-84.8 176.14,-84.8 176.14,-48.8 307.86,-48.8 307.86,-84.8"/>
<text text-anchor="middle" x="242" y="-62.6" font-family="Times,serif" font-size="14.00">VehiculeComponent</text>
</g>
<!-- VehiculeComponent&#45;&gt;AppModule -->
<g id="edge33" class="edge">
<title>VehiculeComponent&#45;&gt;AppModule</title>
<path fill="none" stroke="black" d="M242,-85.12C242,-108.46 242,-145.8 242,-145.8 242,-145.8 2950.3,-145.8 2950.3,-145.8"/>
<polygon fill="black" stroke="black" points="2950.3,-149.3 2960.3,-145.8 2950.3,-142.3 2950.3,-149.3"/>
</g>
<!-- AppComponent  -->
<g id="node29" class="node">
<title>AppComponent </title>
<polygon fill="#80b1d3" stroke="black" points="3056.44,-214.8 2947.56,-214.8 2947.56,-178.8 3056.44,-178.8 3056.44,-214.8"/>
<text text-anchor="middle" x="3002" y="-192.6" font-family="Times,serif" font-size="14.00">AppComponent </text>
</g>
<!-- AppModule&#45;&gt;AppComponent  -->
<g id="edge35" class="edge">
<title>AppModule&#45;&gt;AppComponent </title>
<path fill="none" stroke="black" stroke-dasharray="1,5" d="M3002,-149.91C3002,-149.91 3002,-168.79 3002,-168.79"/>
<polygon fill="black" stroke="black" points="2998.5,-168.79 3002,-178.79 3005.5,-168.79 2998.5,-168.79"/>
</g>
<!-- AppRoutingModule -->
<g id="node28" class="node">
<title>AppRoutingModule</title>
<polygon fill="#8dd3c7" stroke="black" points="152.27,-84.8 149.27,-88.8 128.27,-88.8 125.27,-84.8 23.73,-84.8 23.73,-48.8 152.27,-48.8 152.27,-84.8"/>
<text text-anchor="middle" x="88" y="-62.6" font-family="Times,serif" font-size="14.00">AppRoutingModule</text>
</g>
<!-- AppRoutingModule&#45;&gt;AppModule -->
<g id="edge34" class="edge">
<title>AppRoutingModule&#45;&gt;AppModule</title>
<path fill="none" stroke="black" d="M88,-85.18C88,-109.08 88,-147.8 88,-147.8 88,-147.8 2950.25,-147.8 2950.25,-147.8"/>
<polygon fill="black" stroke="black" points="2950.25,-151.3 2960.25,-147.8 2950.25,-144.3 2950.25,-151.3"/>
</g>
</g>
</svg>
